<?xml version="1.0" standalone="no"?>
<!DOCTYPE svg PUBLIC "-//W3C//DTD SVG 1.1//EN" "http://www.w3.org/Graphics/SVG/1.1/DTD/svg11.dtd" >
<!--
2013-9-30: Created.
-->
<svg>
<metadata>
Created by iconfont
</metadata>
<defs>

<font id="iconfont" horiz-adv-x="1024" >
  <font-face
    font-family="iconfont"
    font-weight="500"
    font-stretch="normal"
    units-per-em="1024"
    ascent="896"
    descent="-128"
  />
    <missing-glyph />
    
    <glyph glyph-name="tw" unicode="&#58890;" d="M421.09507584 441.95054707c0-19.77322269 0-322.30132053-4.05351651-348.00662642-1.35117255-14.82962603-17.56842211-26.69379243-44.59664043-26.69379243l-77.02954781 0c-5.40628082 0-9.45979733-1.97697309-9.45979733-7.90905629l0-22.7386823c0-6.92056974 2.70234397-8.89870677 10.81096875-8.89870678 18.91959353 0 75.67837525 2.96662357 213.52022243 2.96662358 145.95206258 0 189.1959387-2.96662357 202.70925255-2.96662358 10.81096875 0 13.5149056 3.95511011 13.5149056 9.88602937l0 20.76170923c0 4.94359666-2.70234397 8.89754283-8.10862478 8.89754282l-78.38072036 0c-32.43290738 0-45.94781298 19.77322269-45.94781297 94.91100445L594.07376498 689.11408697l37.83918819 0c48.65015694 0 170.27634517-1.97697309 208.11553337-17.79508565 37.83918819-19.77322269 87.84051655-83.04683805 106.76011122-110.72911701 4.05510827-5.9320832 6.75586162-8.89870677 12.1621413-7.90905628l27.02821831 6.92056974c4.05351651 0.98848654 6.75586162 2.96662357 5.40468906 8.89754282-10.81096875 47.45550165-37.83918819 170.04878507-40.54153216 187.84387072-2.70234397 11.8641664-5.40628082 15.81811257-13.5149056 15.81811257-8.10862478 0-13.51331385-3.95511011-24.32428259-9.88602937-20.27076608-10.87451591-71.62485874-24.71565539-97.30031389-25.70530588-62.16506254-1.97697309-118.92384427-5.9320832-267.5782508-5.9320832l-72.97603129 0c-132.43715698 0-189.1959387 3.95511011-262.17037938 5.9320832-37.83918819 0.98848654-64.86740651 5.9320832-91.89562482 25.70530588-8.10862478 5.9320832-13.5149056 9.88602937-21.62193863 9.88602937-5.40628082 0-13.5149056-3.95511011-16.21724956-17.7962496L18.37732295 572.45288676c-1.35117255-4.94359666 0-7.90905629 5.40628082-9.88602937l27.02821831-6.92056974c6.75745223-1.97697309 10.81096875 1.97697309 14.86607701 6.92056974 25.67545515 33.61436217 77.02954781 98.86495061 120.27501568 112.7060901 56.75878173 13.84113949 154.05909561 13.84113949 197.30456349 13.84113948l37.83918819 0L421.09666645 441.95054707z"  horiz-adv-x="1024" />

    
    <glyph glyph-name="view" unicode="&#58910;" d="M514.63960576 693.53535147C150.94586823 693.53535147 5.468606 329.84044999 5.468606 329.84044999s145.47726222-363.69490147 509.17099976-363.69490148c363.69490147 0 509.17332765 363.69490147 509.17332764 363.69490148S878.33450723 693.53535147 514.63960576 693.53535147zM514.63960576 111.62513863000004c-120.47275805 0-218.21531136 97.66922695-218.21531136 218.21531136s97.74255331 218.21647531 218.21531136 218.21647531c120.47508594 0 218.21763925-97.6703909 218.21763925-218.21647531S635.1146917 111.62513863000004 514.63960576 111.62513863000004zM623.74900736 329.84044999c0-60.23754297-48.87185863-109.10707371-109.1094016-109.1070737-60.23521507 0-109.10707371 48.86953074-109.10707371 109.1070737 0 60.23637902 48.87185863 109.10823765 109.10707371 109.10823766C574.87714872 438.94985159 623.74900736 390.07799296 623.74900736 329.84044999z"  horiz-adv-x="1024" />

    
    <glyph glyph-name="qq" unicode="&#58953;" d="M512 891.377c-273.792 0-496-222.208-496-496s222.208-496 496-496 496 222.208 496 496-222.208 496-496 496zM511.008-67.22500000000002c-255.606 0-462.934 207.328-462.934 462.934s207.328 462.934 462.934 462.934 462.934-207.328 462.934-462.934-207.328-462.934-462.934-462.934zM185.962 372.56100000000004c-27.114-63.818-31.414-124.662-9.92-135.904 14.88-7.936 38.358 9.92 60.512 42.656 8.598-35.712 30.422-67.786 61.174-93.91-32.406-11.904-53.238-31.414-53.238-53.568 0-36.374 57.206-65.472 127.638-65.472 63.488 0 116.064 23.808 125.984 55.222 2.646 0 12.566 0 15.21 0 9.92-31.414 62.496-55.222 125.984-55.222 70.432 0 127.638 29.43 127.638 65.472 0 22.154-21.162 41.664-53.238 53.568 30.752 25.792 52.246 58.198 61.174 93.91 22.154-32.736 45.302-50.592 60.512-42.656 21.824 11.242 17.526 72.416-9.59 135.904-21.162 50.262-50.262 86.966-72.416 95.232 0.33 3.306 0.33 6.614 0.33 9.59 0 19.51-5.29 37.366-14.55 51.914 0 0.992 0 2.314 0 3.306 0 8.928-1.984 17.194-5.622 24.47-5.622 130.282-90.272 233.782-227.498 233.782-137.226 0-222.208-103.498-227.498-233.782-3.638-7.274-5.622-15.542-5.622-24.47 0-0.992 0-2.314 0-3.306-9.258-14.55-14.55-32.406-14.55-51.914 0-3.306 0-6.614 0.33-9.59-22.486-8.598-51.584-45.302-72.746-95.232v0z"  horiz-adv-x="1024" />

    
    <glyph glyph-name="date" unicode="&#58923;" d="M197.62299969 431.53994531l145.17571594 0 0-145.17571593-145.17571594-1e-8 0 145.17571594ZM197.62299969 214.79873625000005l145.17571594 0 0-145.17571594-145.17571594 0 0 145.17571594ZM437.87858562 431.53994531l145.17571594 0 0-145.17571593-145.17571593-1e-8-1e-8 145.17571594ZM437.87858562 214.79873625000005l145.17571594 0 0-145.17571594-145.17571593 0-1e-8 145.17571594ZM679.15653594 431.53994531l145.17571593 0 1e-8-145.17571593-145.17571594-1e-8 0 145.17571594ZM847.84662781 864L825.35461531 864l0-120.63897469-145.17571594 0 0 120.63897469-336.35782031 0 0-120.63897469-145.17571593 0 0 120.63897469-22.4920125 0c-79.74440719 0-144.15335156-64.40894437-144.15335157-144.15335156l0-671.69327625c0-79.74440719 64.40894437-144.15335156 144.15335157-144.15335156l671.69327625 0c79.74440719 0 144.15335156 64.40894437 144.15335156 144.15335156l0 671.69327625C991.99997938 798.56869125 927.591035 864 847.84662781 864zM842.73480688-49.99359093999999l-667.60381969 0c-42.93929625 0-96.10223437 53.16293813-96.10223438 96.10223438l0 505.04791218 863.897745 0 0-498.91372781C943.94886219 8.281168129999969 886.6964675-49.99359093999999 842.73480688-49.99359093999999zM679.15653594 214.79873625000005l145.17571593 0 1e-8-145.17571594-145.17571594 0 0 145.17571594Z"  horiz-adv-x="1026" />

    
    <glyph glyph-name="tag" unicode="&#58918;" d="M434.750877 78.59649100000001c18.86315801 0 35.031579 6.28771901 49.40350899 19.761404L868.603509 483.705263c13.473684 13.473684 25.150877 32.33684199 35.031579 54.79298201 9.88070201 23.35438602 14.37193001 44.014035 14.37193001 62.877193L918.00701801 825.93684201c0 18.86315801-7.185965 35.031579-20.65964901 48.50526299-13.473684 13.473684-29.642105 20.659649-48.50526301 20.65964899l-223.66315799 2e-8c-18.86315801 0-40.42105299-4.491228-62.877193-14.37193-23.35438602-9.88070201-41.31929799-20.659649-54.792982-35.03157901l-385.347368-385.347368c-13.473684-13.473684-19.761404-29.642105-19.761404-48.50526299 0-18.86315801 6.28771901-35.031579 19.761404-49.40350901L386.24561401 98.35789499999998C399.71929799 85.78245600000002 415.88771901 78.59649100000001 434.750877 78.59649100000001L434.750877 78.59649100000001zM696.140351 674.133333c-13.473684 13.473684-19.761404 29.642105-19.761404 48.505263 0 18.86315801 6.28771901 35.031579 19.761404 48.505263 13.473684 13.473684 29.642105 19.761404 48.50526301 19.761404 18.86315801 0 35.031579-6.28771901 48.50526299-19.761404 13.473684-13.473684 19.761404-29.642105 19.76140399-48.505263 0-18.86315801-6.28771901-35.031579-19.76140399-48.505263-13.473684-13.473684-29.642105-19.761404-48.50526299-19.76140401C725.782456 653.473684 709.614035 660.65964899 696.140351 674.133333L696.140351 674.133333zM484.15438599-108.23859600000003L868.603509 277.10877200000004c13.473684 13.473684 25.150877 32.33684199 35.031579 54.79298199 9.88070201 23.35438602 14.37193001 44.014035 14.37193001 62.87719301L918.00701801 516.042105c0-18.86315801-4.491228-40.42105299-14.37193001-62.877193-9.88070201-23.35438602-20.659649-41.31929799-35.031579-54.79298199l-384.44912301-385.34736802c-14.37193001-13.473684-30.540351-19.761404-49.40350899-19.761404-18.86315801 0-35.031579 6.28771901-48.50526302 19.761404L132.940351 265.43157900000006c-10.778947-10.778947-18.86315799-20.659649-24.25263201-28.74386001-5.38947399-8.084211-7.185965-18.86315801-7.18596498-31.43859599 0-18.86315801 6.28771901-35.031579 19.761404-49.40350899L386.24561401-108.23859600000003c13.473684-13.473684 29.642105-19.761404 48.50526299-19.761404C453.614035-128 469.782456-121.71228098999995 484.15438599-108.23859600000003L484.15438599-108.23859600000003zM484.15438599-108.23859600000003"  horiz-adv-x="1024" />

    
    <glyph glyph-name="weibo" unicode="&#58883;" d="M445.146218 221.098446C344.252711 216.374421 262.697586 266.973207 262.697586 334.291288 262.697586 401.684004 344.252711 455.743577 445.146218 460.402645 546.093627 465.050657 627.820134 423.452127 627.820134 356.183796 627.820134 288.860186 546.093627 225.671825 445.146218 221.098446M659.97061 439.821751C635.993891 444.469763 647.650545 457.373075 647.650545 457.373075 647.650545 457.373075 671.092392 496.023582 643.002533 524.113441 608.190127 558.914791 523.612345 519.681037 523.612345 519.681037 491.30569 509.660791 499.856761 524.265472 504.42461 549.104623 504.42461 578.372034 494.404364 627.934242 408.331145 598.661304 322.369877 569.243245 248.551764 466.135608 248.551764 466.135608 197.209407 397.646884 204.017646 344.705434 204.017646 344.705434 216.822829 227.809941 341.018591 195.72995 437.61376 188.133914 539.252221 180.164707 676.399669 223.166074 718.002344 311.501794 759.589819 400.006134 684.00676 435.021708 659.97061 439.821751M459.247814 333.556009C452.816889 328.75735 444.908498 329.415231 441.53893 335.181365 437.992455 340.780263 439.320655 349.774987 445.809628 354.499016 453.324123 360.10206 461.153736 358.487763 464.538505 352.87366 467.923274 347.129641 465.499067 338.502557 459.247814 333.556009M399.417965 282.607553C380.467953 280.378223 365.199862 291.299599 365.199862 307.161993 365.199862 322.931785 378.77764 339.463118 397.733181 341.439524 419.484715 343.512678 433.64574 330.964566 433.64574 315.120141 433.64574 299.34482 418.286433 284.745665 399.417965 282.607553M425.013126 415.997063C323.552957 404.124801 335.273189 309.077587 335.273189 309.077587 335.273189 309.077587 334.232466 278.974005 362.478503 263.652012 421.849494 231.486332 482.970228 250.954633 513.878194 290.851797 544.770956 330.743431 526.635001 427.804368 425.013126 415.997063M709.36973 480.966953C717.549016 480.966953 724.492701 487.023329 725.674397 494.901314 725.815372 495.499766 725.880333 496.023582 725.880333 496.677317 738.275031 608.098302 634.591057 588.921625 634.591057 588.921625 625.375196 588.921625 618.005821 581.476237 618.005821 572.185742 618.005821 563.038984 625.375196 555.58945 634.591057 555.58945 709.072579 572.03371 692.622792 497.561861 692.622792 497.561861 692.622792 488.347384 700.138668 480.966953 709.36973 480.966953M697.287389 675.459231C661.434259 683.855505 624.570811 676.60914 614.221626 674.634115 613.432446 674.552571 612.676433 673.807618 611.953595 673.65144 611.591482 673.586481 611.370347 673.218842 611.370347 673.218842 601.177339 670.341304 593.743007 660.904306 593.743007 649.765939 593.743007 636.496369 604.502677 625.579139 617.924278 625.579139 617.924278 625.579139 630.983769 627.328881 639.822316 630.795195 648.595905 634.320939 722.856289 633.423955 759.730794 571.483633 779.862505 526.284724 768.584545 496.023582 767.185857 491.159962 767.185857 491.159962 762.392725 479.421764 762.392725 467.852179 762.392725 454.501065 773.152395 446.111701 786.497982 446.111701 797.636347 446.111701 807.008388 447.644454 809.735277 466.492191L809.874868 466.492191C849.47488 598.466427 761.430782 660.477236 697.287389 675.459231M511.996538 894.651452C238.349895 894.651452 16.493931 672.80104 16.493931 399.191869 16.493931 125.491101 238.345732-96.31629 511.996538-96.31629 785.654285-96.31629 1007.506085 125.491101 1007.506085 399.191869 1007.506085 672.80104 785.654285 894.651452 511.996538 894.651452M511.240469 868.11292C769.41386 868.11292 979.454028 658.115711 979.454028 399.947865 979.454028 141.731516 769.41386-68.292023 511.240469-68.292023 253.029665-68.292023 42.989498 141.731516 42.989498 399.947865 42.989498 658.115711 253.029665 868.11292 511.240469 868.11292"  horiz-adv-x="1024" />

    
    <glyph glyph-name="qzone" unicode="&#58897;" d="M512 827.733333c244.667733 0 443.733333-199.0656 443.733333-443.733333s-199.0656-443.733333-443.733333-443.733333S68.266667 139.332267 68.266667 384 267.332267 827.733333 512 827.733333M512 861.866667C248.081067 861.866667 34.133333 647.918933 34.133333 384s213.947733-477.866667 477.866667-477.866667 477.866667 213.947733 477.866667 477.866667S775.918933 861.866667 512 861.866667L512 861.866667zM819.2 460.1856l-79.394133 0-113.9712 0-26.8288 47.786667-80.759467 155.7504-6.417067-14.0288-67.037867-141.7216-26.8288-47.786667-114.005333 0L204.8 460.1856l147.285333-123.8016-24.098133-214.698667-2.082133-17.408 191.931733 118.0672 190.8736-117.316267-2.628267 16.657067-33.450667 214.698667L819.2 460.1856zM371.029333 249.61706700000002l194.4576 158.481067-181.0432 31.0272 274.909867 0-167.6288-151.790933 174.353067-37.751467L371.029333 249.61706700000002 371.029333 249.61706700000002z"  horiz-adv-x="1024" />

    
    <glyph glyph-name="user" unicode="&#58911;" d="M880.772948 34.875553999999966l0-16.623609c0-80.719416-131.784442-80.719416-284.407492-80.719416l-168.754448 0c-158.874427 0-284.383956 0-284.383956 80.719416l0 16.623609c0 154.426115 127.546931 280.028764 284.383956 280.028764l168.754448 0C753.191224 314.904319 880.772948 189.265854 880.772948 34.875553999999966zM748.501412 589.122751c0-133.092227-109.88262-241.345744-244.948805-241.345744-135.052882 0-244.948805 108.291378-244.948805 241.345744 0 133.066645 109.895923 241.345744 244.948805 241.345744C638.618792 830.467471 748.501412 722.2139549999999 748.501412 589.122751z"  horiz-adv-x="1024" />

    
    <glyph glyph-name="lianjie" unicode="&#59028;" d="M129.87864633 171.22797227c-46.37782926 80.27700679-18.45930667 184.60284587 61.81997454 230.99363669l188.91255694 109.13196715-51.83591651 89.73121877-188.91323961-109.14447474c-129.87142827-75.02972018-174.74044814-242.68320427-99.70845468-372.5553152 75.02585401-129.86528768 242.67820146-174.74044814 372.54894819-99.7107291l188.9127845 109.13765262-51.83591652 89.72439666-188.91210297-109.13651598C280.58959075 63.02402901000005 176.26375168 90.94073230000004 129.87864633 171.22797227zM350.79953863 235.86112852999997l377.82352327 218.27530525-54.57860494 94.46617088-377.81624605-218.27462258L350.79953863 235.86112852999997zM612.12806485 764.78854599l-188.89663943-109.13810773 51.83659919-89.72621597 188.90414307 109.13242226c80.29974755 46.38919907 184.60966798 18.45817003 230.98704213-61.82565888 46.39079083-80.28110051 18.47408754-184.60580295-61.82565888-230.98522282l-188.89277326-109.13537821 51.8304586-89.72667107 188.90528085 109.1308305c129.87893191 75.03995335 174.75409237 242.68547869 99.73005767 372.56259243C909.66707655 794.95083691 742.0192768 839.81371733 612.12806485 764.78854599z"  horiz-adv-x="1024" />

    
    <glyph glyph-name="yinle" unicode="&#59205;" d="M866.466672 892.102166 440.342848 756.465413c-51.774261-15.355104-93.39053-71.027199-93.39053-124.730692l0-460.653123 0-6.378274c0 0-31.379533 21.77275-99.847549 11.496642-101.068083-14.725151-182.922599-95.359134-182.922599-179.812206 0-84.4137 81.854516-136.187962 182.922599-121.502183s175.323791 92.760577 175.323791 177.253022L422.42856 451.25319c0 37.127854 42.836803 53.112911 42.836803 53.112911l376.908747 122.840833c0 0 42.20685 14.725151 42.20685-25.552468l0-319.898002c0 0-38.427132 22.363331-107.446357 14.055826-101.068083-12.79592-183.040715-91.540044-183.040715-175.953744 0-84.492445 81.972633-138.235309 183.040715-125.400017 101.02871 12.717176 182.922599 91.461299 182.922599 175.953744L959.857202 822.374245C959.857202 876.117109 918.240933 907.45727 866.466672 892.102166z"  horiz-adv-x="1024" />

    
    <glyph glyph-name="comment" unicode="&#58889;" d="M512 865.264c-256.438 0-464.322-181.899-464.322-406.283s207.884-406.282 464.322-406.282c20.065 0-5.347-104.518 14.158-105.092 11.609-0.342 149.951 130.901 165.671 136.685 167.135 61.488 284.492 206.096 284.492 374.688 0.001 224.385-207.884 406.283-464.321 406.283zM542.348 313.45799999999997h-249.567c-25.031 0-45.511 20.48-45.511 45.511s20.48 45.511 45.511 45.511h249.567c25.031 0 45.511-20.48 45.511-45.511s-20.48-45.511-45.511-45.511zM731.219 513.707h-438.438c-25.031 0-45.511 20.48-45.511 45.511s20.48 45.511 45.511 45.511h438.438c25.031 0 45.511-20.48 45.511-45.511s-20.48-45.511-45.511-45.511z"  horiz-adv-x="1024" />

    
    <glyph glyph-name="weixin" unicode="&#58884;" d="M683.517777 379.959425C673.386119 379.959425 663.075262 390.12348 663.075262 400.509262 663.075262 410.748234 673.349672 421.059095 683.517777 421.059095 698.98609 421.059095 709.256453 410.748234 709.256453 400.509262 709.256453 390.12348 698.98609 379.959425 683.517777 379.959425M570.41522 379.959425C560.211681 379.959425 549.862347 390.12348 549.862347 400.509262 549.862347 410.748234 560.211681 421.059095 570.41522 421.059095 586.025277 421.059095 596.157945 410.748234 596.157945 400.509262 596.157945 390.12348 586.025277 379.959425 570.41522 379.959425M801.809173 354.213663C801.809173 436.41604 719.535923 503.408277 627.124947 503.408277 529.277077 503.408277 452.262529 436.384652 452.262529 354.213663 452.262529 271.792597 529.312514 205.02208599999994 627.124947 205.02208599999994 647.60391 205.02208599999994 668.268151 210.14410399999997 688.817988 215.29751L745.202714 184.361892 729.739465 235.77140899999995C771.020364 266.78194699999995 801.809173 307.85023 801.809173 354.213663M359.674371 518.840145C344.246554 518.840145 328.703318 529.1510020000001 328.703318 544.5474340000001 328.703318 560.0147360000001 344.246554 570.2182740000001 359.674371 570.2182740000001 375.106236 570.2182740000001 385.349262 560.050169 385.349262 544.5474340000001 385.349262 529.1510020000001 375.106236 518.840145 359.674371 518.840145M503.569788 570.2182740000001C519.11201 570.2182740000001 529.312514 560.0147360000001 529.312514 544.5474340000001 529.312514 529.1510020000001 519.11201 518.840145 503.569788 518.840145 488.208794 518.840145 472.741492 529.1510020000001 472.741492 544.5474340000001 472.741492 560.050169 488.173357 570.2182740000001 503.569788 570.2182740000001M614.093616 514.4815189999999C620.773805 514.4815189999999 627.346676 513.975289 633.954981 513.252395 616.162066 596.103756 527.607534 657.64594 426.484366 657.64594 313.457744 657.64594 220.868574 580.639492 220.868574 482.787572 220.868574 426.322858 251.657384 379.959425 303.146884 343.94228899999996L282.593 282.10345500000005 354.485529 318.124643C380.192818 313.07855600000005 400.813525 307.85023 426.484366 307.85023 432.950929 307.85023 439.338516 308.13878 445.654224 308.60957199999996 441.663118 322.371898 439.302068 336.748785 439.302068 351.74529199999995 439.338516 441.573495 516.458361 514.4815189999999 614.093616 514.4815189999999M511.996538 894.651452C238.349895 894.651452 16.493931 672.8010400000001 16.493931 399.191869 16.493931 125.49110099999996 238.345732-96.31628999999998 511.996538-96.31628999999998 785.654285-96.31628999999998 1007.506085 125.49110099999996 1007.506085 399.191869 1007.506085 672.8010400000001 785.654285 894.651452 511.996538 894.651452M511.240469 868.11292C769.41386 868.11292 979.454028 658.115711 979.454028 399.947865 979.454028 141.73151600000006 769.41386-68.29202299999997 511.240469-68.29202299999997 253.029665-68.29202299999997 42.989498 141.73151600000006 42.989498 399.947865 42.989498 658.115711 253.029665 868.11292 511.240469 868.11292"  horiz-adv-x="1024" />

    
    <glyph glyph-name="douban" unicode="&#58982;" d="M294.077 612.979h418.83v-47.181h-418.83v47.181zM644.077 305.975l-50.326 18.345c-13.102-35.968-28.339-68.834-45.684-98.462h-87.611c-14.516 38.42-30.895 71.265-49.267 98.462l-46.306-18.345c19.104-28.651 34.499-55.307 46.306-80.117h-128.953v-46.656h442.521v46.656h-123.109c15.062 23.046 29.267 49.78 42.429 80.117zM676.49 332.162v184.429h-346.003v-184.429h346.003zM380.65 469.449h246.164v-90.166h-246.164v90.166zM502.306 867.455c-264.591 0-479.85-215.204-479.85-479.724 0-264.486 215.264-479.658 479.85-479.658 264.493 0 479.68 215.171 479.68 479.658 0 264.519-215.187 479.724-479.68 479.724zM502.306-64.62c-249.534 0-452.543 202.922-452.543 452.351 0 249.462 203.009 452.417 452.543 452.417 249.436 0 452.373-202.954 452.373-452.417 0-249.43-202.938-452.351-452.373-452.351z"  horiz-adv-x="1024" />

    
    <glyph glyph-name="rss" unicode="&#59118;" d="M320.374394 128q0-45.714286-32-77.714286t-77.714285-32-77.714286 32-32 77.714286 32 77.714286 77.714286 32 77.714285-32 32-77.714286z m292.571429-70.285714q1.142857-16-9.714286-27.428572-10.285714-12-26.857143-12H499.231537q-14.285714 0-24.571428 9.428572t-11.428572 23.714285q-12.571429 130.857143-105.428571 223.714286T134.08868 380.571429q-14.285714 1.142857-23.714286 11.428571T100.945823 416.571429V493.714286q0 16.571429 12 26.857143 9.714286 9.714286 24.571428 9.714285h2.857143q91.428571-7.428571 174.857143-46T463.231537 380.571429q65.142857-64.571429 103.714286-148t46-174.857143z m292.571428-1.142857q1.142857-15.428571-10.285714-26.857143-10.285714-11.428571-26.285714-11.428572h-81.714286q-14.857143 0-25.428571 10T750.660109 52.571429q-6.857143 122.857143-57.714286 233.428571t-132.285714 192-192 132.285714T135.231537 668.571429q-14.285714 0.571429-24.285714 11.142857T100.945823 704.571429V786.285714q0 16 11.428571 26.285715 10.285714 10.285714 25.142857 10.285714h1.714286q149.714286-7.428571 286.571429-68.571429T668.945823 586.285714q106.857143-106.285714 168-243.142857t68.571428-286.571428z"  horiz-adv-x="1024" />

    
    <glyph glyph-name="music-next" unicode="&#58885;" d="M924.10614518 864.86675911h-52.11689718c-24.51653215 0-44.38971733-19.87561245-44.3885037-44.3885037v-358.84600889c-5.0669037 4.21857659-10.66294992 8.25510875-16.81241127 12.06347851l-610.27244562 378.07839764c-69.17567525 42.85447585-125.77329303 11.33894163-125.7757203-70.03856592v-794.59608653c0-81.37872118 55.93133511-111.83597037 124.29145126-67.68897897l613.24219733 396.05467972c5.57056 3.59598459 10.67387259 7.37644089 15.3269286 11.30496v-377.16210727c0-24.51653215 19.86833067-44.38607645 44.38971733-44.38607645h52.11689719c24.51653215 0 44.3885037 19.87075792 44.38971733 44.38607645v870.83629985c0 24.51653215-19.87561245 44.38607645-44.38971733 44.38607645z"  horiz-adv-x="1024" />

    
    <glyph glyph-name="music-list" unicode="&#59025;" d="M924.243507 891.871983c-19.098987 0-33.423227-15.916505-33.423227-33.424251v-555.47107c-76.394924 55.706743-198.951191 55.706743-310.3657-7.957229-136.876414-79.582523-197.357903-224.419236-140.060943-329.462641 58.890248-108.232027 218.050178-122.556267 354.930685-42.973743 105.045451 62.072731 167.119205 162.343435 162.343435 253.067716V858.447732c0 17.507746-14.32424 33.42425-33.42425 33.424251zM773.04183-21.712255000000027c-101.863992-60.48149-226.007407-58.891272-273.756921 12.732999-47.747467 73.212442 1.592264 189.401698 101.863992 249.879094 101.861946 60.48149 230.783177 58.892295 278.531668-14.32424 46.155203-71.618131-6.368034-186.215122-106.638739-248.287853zM109.339756 586.2830759999999h611.178836c19.098987 0 33.423227 15.916505 33.423227 33.423227 0 19.098987-15.916505 33.42425-33.423227 33.42425H109.339756c-19.098987 0-33.42425-15.916505-33.424251-33.42425 0.001023-19.101033 14.325263-33.423227 33.424251-33.423227zM109.339756 790.009014h611.178836c19.098987 0 33.423227 15.916505 33.423227 33.423227 0 19.098987-15.916505 33.42425-33.423227 33.42425H109.339756c-19.098987 0-33.42425-15.916505-33.424251-33.42425 0.001023-17.506722 14.325263-33.423227 33.424251-33.423227zM109.339756 382.557138h374.028648c19.098987 0 33.42425 15.916505 33.424251 33.424251 0 19.098987-15.916505 33.42425-33.424251 33.42425h-374.028648c-19.098987 0-33.42425-15.916505-33.424251-33.42425 0.001023-19.101033 14.325263-33.42425 33.424251-33.424251zM313.066717 245.67765499999996H109.339756c-19.098987 0-33.42425-15.918551-33.424251-33.421181 0-19.102057 15.916505-33.42425 33.424251-33.42425h203.725937c19.098987 0 33.423227 15.915481 33.423228 33.42425 0.001023 19.094894-14.323217 33.42118-33.422204 33.421181z"  horiz-adv-x="1024" />

    
    <glyph glyph-name="bianji" unicode="&#58881;" d="M311.04914773 227.49238613L356.33998507 182.07593813000005 465.42247253 221.86175146999994 350.75085653 336.40557227ZM513.39264 862.593024c-264.57757013 0-479.00699307-214.45563733-479.00699307-479.01026987 0-264.52732587 214.4305152-479.00699307 479.00699307-479.00699306 264.52732587 0 479.00808533 214.4796672 479.00808533 479.00699306C992.40072533 648.1373866700001 777.91996587 862.593024 513.39264 862.593024zM489.43158613 197.8548224l-0.2555904 0.2981888c-1.3238272-1.10974293-2.77435733-2.1331968-4.48047786-2.73066667l-220.63895894-80.51206826c-5.75842987-2.04690773-12.23994027-0.6815744-16.50305706 3.75412053-4.34722133 4.26420907-5.7573376 10.74681173-3.62523307 16.45827413l80.4257792 220.5581312c0.5996544 1.6613376 1.5368192 3.0703616 2.686976 4.43569494l-0.17257813 0.21189973L524.99688107 558.40986453c21.49362347-21.44884053 39.18834347-39.1020544 39.18834346-39.1020544l-155.22420053-154.97079466c-2.51549013-2.4313856-3.62523307-5.62845013-3.62523307-8.86920534 0-3.1981568 1.10974293-6.39849813 3.62523307-8.87138986 2.43247787-2.38660267 5.63063467-3.7093376 8.9554944-3.7093376 3.32485973 0 6.48260267 1.32273493 8.91071147 3.7093376L581.9695104 501.48092587l48.74021547-48.65829547L476.2533888 298.53559467c-4.86167893-4.9020928-4.86167893-12.87673173 0-17.7799168 2.38769493-2.34728107 5.63063467-3.66783147 8.95658667-3.66783147 3.36964267 0 6.52301653 1.3205504 8.91180373 3.62523307 0 0.0425984 154.41483093 154.28594347 154.41483093 154.28594346s22.68747093-22.68747093 38.977536-39.06164053L489.43158613 197.8548224zM767.21575253 475.51010133l-61.83430826-61.79170986c-31.768576 31.72706987-105.5850496 105.58941867-162.51508054 162.4113152l61.91732054 61.8758144c22.17519787 22.1544448 58.42315947 22.1970432 80.5568512 0l81.87630933-81.92C789.3909504 533.93216853 789.34944427 497.770496 767.21575253 475.51010133z"  horiz-adv-x="1024" />

    
    <glyph glyph-name="music-play" unicode="&#58959;" d="M859.33013333 481.24373333L263.60106667 870.46613333c-92.58666667 53.5168-168.42986667 9.6864-168.42986667-97.26293333v-778.3616c0-107.02826667 75.84213333-150.77866667 168.42986667-97.34613333L859.33013333 286.63466667c92.66666667 53.5968 92.66666667 141.09226667 0 194.60906666z"  horiz-adv-x="1024" />

    
    <glyph glyph-name="music-volume" unicode="&#58922;" d="M726.759617 562.120611c-3.612296 9.460776-10.664875 17.201411-19.781623 21.32975-7.396607 4.128339-16.169326 6.020494-25.286074 4.644381-21.501764-3.440282-36.122963-23.909961-32.682681-45.583739 1.892155-12.385016 9.288762-22.533848 19.093566-28.382328 37.843104-40.767344 61.237023-95.295817 61.237024-155.500756 0-65.881404-27.866286-125.054258-72.417941-166.681673-8.256677-7.224593-13.417101-17.717453-13.4171-29.586427 0-21.501764 17.373425-39.047203 38.703174-39.047204 11.008903 0 20.813707 4.644381 27.866286 11.868974 7.568621 4.472367 13.417101 11.352931 16.513355 19.609609 48.507979 53.840417 78.438434 125.054258 78.438434 203.664707 0.172014 78.438434-29.758441 149.652276-78.26642 203.664706z m135.719133 142.083656c-6.364522 13.245087-19.953637 22.18982-35.606921 22.18982-21.845792 0-39.563245-17.889467-39.563245-39.73526 0-14.449185 7.568621-27.006215 19.093566-34.058793 67.085503-70.525785 108.540904-165.993617 108.540904-271.266253 0-118.00168-51.948261-223.44633-133.826978-295.520242l0.172014-0.172014c-12.901058-6.364522-21.673778-19.781623-21.673778-35.090878 0-21.673778 17.373425-39.219217 39.047203-39.219217 12.729044 0 24.081975 6.192508 31.306568 15.825298 0.344028 0.344028 0.688056 0.860071 1.032085 1.204098l0.172014-0.172014c97.876029 86.007055 159.973123 212.093398 159.973123 353.144969-0.344028 125.226272-49.36805 238.755585-128.666555 322.870486z m-416.618175 67.601545L251.140601 571.5813880000001H132.450865c-50.744163 0-75.686209-27.522258-75.686209-76.202251V241.658324c0-47.819923 25.802117-76.202251 75.686209-76.202251h118.689736l194.719974-200.224425c55.904586-52.808332 141.051571-29.586427 141.05157 58.140769V713.665043c0 88.587267-86.179069 109.917017-141.05157 58.140769z m65.365362-709.214178c0-57.624727-25.458088-25.286074-51.43222 0.516043-45.411725 45.067697-114.217369 118.00168-170.637997 178.722661h-106.132706c-38.359147 0-50.572148 12.901058-50.572149 50.744162v152.232488c0 36.983034 12.901058 50.744163 50.572149 50.744163h107.336805c56.0766 61.065009 124.194188 133.826978 169.605913 178.378632 25.802117 25.286074 51.260205 58.484798 51.260205-1.548127v-609.790022z"  horiz-adv-x="1024" />

    
    <glyph glyph-name="music-pause" unicode="&#58925;" d="M320.93866667 893.49688889H129.87733333c-35.09134222 0-63.68711111-28.59576889-63.68711111-63.68711111v-891.61955556c0-35.09134222 28.59576889-63.68711111 63.68711111-63.68711111h191.06133334c35.09134222 0 63.68711111 28.59576889 63.68711111 63.68711111v891.61955556c0 35.09134222-28.59576889 63.68711111-63.68711111 63.68711111zM894.12266667 893.49688889H703.06133333c-35.09134222 0-63.68711111-28.59576889-63.68711111-63.68711111v-891.61955556c0-35.09134222 28.59576889-63.68711111 63.68711111-63.68711111H894.12266667c35.09134222 0 63.68711111 28.59576889 63.68711111 63.68711111v891.61955556c0 35.09134222-28.59576889 63.68711111-63.68711111 63.68711111z"  horiz-adv-x="1024" />

    
    <glyph glyph-name="shezhi" unicode="&#58926;" d="M988.28288 479.13984c-5.632 30.11584-23.90528 49.57184-46.48448 49.57184H936.89856a119.05024 119.05024 0 0 0-118.44608 119.3728 136.92416 136.92416 0 0 0 10.31168 45.5168 62.94528 62.94528 0 0 1-20.92544 75.7248l-1.42848 1.024-120.03328 67.19488-1.536 0.67072a62.976 62.976 0 0 1-25.43616 5.16096 68.46976 68.46976 0 0 1-48.83968-20.08064c-13.16352-13.696-58.60864-52.79232-93.52704-52.79232-35.23584 0-80.9472 39.86432-94.17216 53.81632a68.47488 68.47488 0 0 1-49.23392 20.48 62.84288 62.84288 0 0 1-24.97024-4.98176l-1.536-0.6656L222.848 770.3552l-1.46944-1.024a62.83264 62.83264 0 0 1-21.06368-75.66848 135.73632 135.73632 0 0 0 10.3424-45.568 119.04512 119.04512 0 0 0-118.44096-119.38816H87.2704c-22.55872 0-40.79104-19.456-46.44352-49.58208A624.64 624.64 0 0 1 30.72 383.616a624.64 624.64 0 0 1 10.10688-95.52384c5.632-30.11584 23.90016-49.57696 46.47424-49.57696H92.2112a119.04512 119.04512 0 0 0 118.44608-119.3728 136.66816 136.66816 0 0 0-10.31168-45.5168 63.01184 63.01184 0 0 1 20.89472-75.74528l1.40288-0.98816 117.76-66.36032 1.49504-0.6656a62.208 62.208 0 0 1 25.36448-5.21216 67.33824 67.33824 0 0 1 49.19808 20.9664c16.72192 18.31424 62.09536 56.13568 95.60576 56.13568 36.28544 0 82.816-42.39872 96.256-57.23648a67.3024 67.3024 0 0 1 49.52064-21.31968 62.12096 62.12096 0 0 1 24.91392 5.03808l1.536 0.6656 122.05568 67.98848 1.44384 1.024a62.87872 62.87872 0 0 1 21.02272 75.62752 138.14784 138.14784 0 0 0-10.35776 45.61408 119.04512 119.04512 0 0 0 118.44608 119.3728h4.8384c22.62016 0 40.88832 19.456 46.53568 49.55648A618.7008 618.7008 0 0 1 998.4 383.616a621.52704 621.52704 0 0 1-10.11712 95.52384zM367.86688-6.4256l-103.00416 58.05056a199.64416 199.64416 0 0 1 13.78816 67.52768 187.21792 187.21792 0 0 1-172.00128 187.35104 524.7232 524.7232 0 0 0-7.92576 77.11232 525.94688 525.94688 0 0 0 7.92064 77.11232 187.20256 187.20256 0 0 1 172.032 187.35104 199.57248 199.57248 0 0 1-13.72672 67.3792l109.57824 60.672a327.80288 327.80288 0 0 1 41.57952-35.54816c35.6608-25.6 69.632-38.60992 100.93568-38.60992 31.00672 0 64.69632 12.73856 100.13184 37.888a326.33856 326.33856 0 0 1 41.35936 34.87744l105.66144-59.1616a199.6288 199.6288 0 0 1-13.7728-67.47648 187.20768 187.20768 0 0 1 172.032-187.35104 527.12448 527.12448 0 0 0 7.92576-77.11744 525.08672 525.08672 0 0 0-7.92064-77.11744 187.19744 187.19744 0 0 1-172.0064-187.35104 199.38304 199.38304 0 0 1 13.7472-67.42016l-106.9824-59.59168a332.36992 332.36992 0 0 1-41.74336 37.16608c-36.352 27.20768-71.168 41.00096-103.424 41.00096-31.96416 0-66.49856-13.53728-102.64576-40.23296a335.21152 335.21152 0 0 1-41.53856-36.51072z m315.97568 390.656a171.38176 171.38176 0 1 1-171.38176-172.71808 172.24704 172.24704 0 0 1 171.37664 172.73344zM512.45568 488.448A104.192 104.192 0 1 0 409.088 384.24576 103.90528 103.90528 0 0 0 512.45568 488.448z"  horiz-adv-x="1024" />

    
    <glyph glyph-name="yuedu1" unicode="&#59082;" d="M147.968 758.784v-750.08c0-41.472 32.768-74.752 72.704-74.752h610.304c25.088 0 45.568 20.992 45.568 47.104s-20.48 47.104-45.568 47.104H275.456c-19.968 0-36.352 16.896-36.352 37.376s16.384 37.376 36.352 37.376H803.84c40.448 0 72.704 33.792 72.704 74.752V758.784c0 41.472-32.768 74.752-72.704 74.752h-254.976V496.64c0-5.12-2.048-9.728-5.12-13.312-7.168-7.168-18.944-7.168-26.112 0-4.608 5.12-78.336 68.096-78.336 68.096S365.568 488.448 360.96 483.328c-7.168-7.168-18.944-7.168-26.112 0-3.584 3.584-5.12 8.704-5.12 13.312V834.048H220.672c-40.448 0-72.704-33.792-72.704-75.264z"  horiz-adv-x="1024" />

    
    <glyph glyph-name="shoucang" unicode="&#58882;" d="M786.309939-107.349333c-11.093333 0-23.893333 3.754667-34.986666 9.216l-239.616 119.808L270.043273-98.133333c-23.893333-12.970667-55.296-11.093333-77.482667 5.461333s-34.986667 46.08-29.525333 73.728l49.834666 258.048L23.088606 416.085333C2.779273 436.394667-4.559394 467.797333 2.779273 493.568c9.216 27.648 31.402667 47.957333 60.757333 51.541333l263.68 47.957334L445.317939 832.853333c12.970667 25.770667 38.741333 42.325333 66.389334 42.325334S567.003273 858.624 578.096606 832.853333l117.930667-239.616 263.68-46.08c27.648-3.754667 51.541333-23.893333 59.050666-51.541333 9.216-27.648 1.877333-57.173333-18.432-77.482667L810.203273 239.104l47.957333-258.048c5.461333-29.525333-7.338667-57.173333-29.525333-73.728-10.922667-9.216-25.770667-14.677333-42.325334-14.677333z"  horiz-adv-x="1024" />

    
    <glyph glyph-name="home" unicode="&#58888;" d="M945.6 441.5L564.5 774.4c-29.4 29.2-76.8 28.3-103.2 1.7L79 441.4c-9.1-8.7-14.3-21.3-14.3-34.4 0-26.8 21.8-48.7 48.5-48.7h48.3v-299.6c0-47 38-85.2 84.8-85.2h167.6V189c0 54.4 44.1 98.5 98.5 98.5s98.5-44.1 98.5-98.5v-215.5h167.6c46.7 0 84.8 38.2 84.8 85.2V358.29999999999995h48.3c26.7 0 48.5 21.8 48.5 48.7-0.1 12.6-4.9 24.6-14.5 34.5z"  horiz-adv-x="1024" />

    
    <glyph glyph-name="shoucang1" unicode="&#59181;" d="M707.584 802.816c-77.312 0-148.992-38.912-196.608-102.912-47.104 64-119.296 102.912-196.608 102.912-139.264 0-252.416-123.904-252.416-275.968 0-90.624 40.448-154.624 73.216-205.824C229.888 172.032 468.48-12.8 478.72-20.48c9.728-7.68 20.992-11.264 32.256-11.264s22.528 3.584 32.256 11.264c10.24 7.68 248.32 193.024 343.552 341.504 32.768 51.2 73.216 115.2 73.216 205.824 0 152.064-113.152 275.968-252.416 275.968z"  horiz-adv-x="1024" />

    
    <glyph glyph-name="music-album" unicode="&#58955;" d="M458.375228 820.925319a458.375228 458.375228 0 1 1 458.375227-458.375228 458.84153 458.84153 0 0 1-458.375227 458.375228z m0-870.120219a411.744991 411.744991 0 1 0 411.744991 411.744991 412.211293 412.211293 0 0 0-411.744991-411.744991zM458.375228 425.967213a63.883424 63.883424 0 1 1 63.883424-63.883424 63.883424 63.883424 0 0 1-63.883424 63.883424z m0-80.67031a17.253188 17.253188 0 1 0 17.253187 17.253188 17.253188 17.253188 0 0 0-17.253187-17.253188zM1038.921676 896a23.315118 23.315118 0 0 1-23.315119-23.315118v-612.25501l-103.519125-213.100182a46.630237 46.630237 0 0 1-49.428051-21.916211l-38.236794-67.147541a46.630237 46.630237 0 0 1 17.253187-62.95082l30.309654-17.253187a46.630237 46.630237 0 0 1 62.95082 17.253187l38.703096 68.080146a46.630237 46.630237 0 0 1-17.253187 62.95082h-2.331512L1059.905282 243.17668500000002a23.781421 23.781421 0 0 1 0 10.258652V872.684882a23.315118 23.315118 0 0 1-20.983606 23.315118zM895.300546-83.23497299999997l-29.843351 16.786886 37.770492 67.147541 9.792349-5.595629 19.5847-10.724954zM458.375228 515.96357a153.413479 153.413479 0 1 1 153.413479-153.413479 153.413479 153.413479 0 0 1-153.413479 153.413479z m0-259.730419a106.783242 106.783242 0 1 0 106.783242 106.783242 106.783242 106.783242 0 0 0-106.783242-107.249544z"  horiz-adv-x="1062" />

    
    <glyph glyph-name="up" unicode="&#58891;" d="M358-1h308V384h231L512 769 127 384h231z"  horiz-adv-x="1024" />

    
    <glyph glyph-name="shanchu1" unicode="&#58886;" d="M512 864C246.4 864 32 649.6 32 384s214.4-480 480-480 480 214.4 480 480S777.6 864 512 864m201.6-681.6c-12.8-12.8-35.2-12.8-48 0L512 336l-153.6-153.6c-12.8-12.8-35.2-12.8-48 0-12.8 12.8-12.8 35.2 0 48l153.6 153.6-153.6 153.6c-12.8 12.8-12.8 35.2 0 48 12.8 12.8 35.2 12.8 48 0l153.6-153.6 153.6 153.6c12.8 12.8 35.2 12.8 48 0 12.8-12.8 12.8-35.2 0-48L560 384l153.6-153.6c16-12.8 16-35.2 0-48m0 0z"  horiz-adv-x="1024" />

    
    <glyph glyph-name="shu" unicode="&#58939;" d="M650.705-33.73l-0.124 670.379c-5.802 144.85 61.533 204.024 183.39 226.087C927.867 879.616 1024 884.364 1133.226 895.876c0-278.652-0.404-791.893-0.404-791.893l0.404-66.126s-246.784 19.239-482.49-71.587z m-56.63 0c-235.582 90.857-482.521 71.587-482.521 71.68l0.434 66.188s-0.403 513.21-0.403 791.862c109.32-11.636 205.327-16.384 299.194-33.264 121.763-22.063 189.223-81.238 183.39-226.087l-0.094-670.379z m79.748-47.01c169.146 27.461 340 55.078 526.988 85.457V770.172h40.277l0.124-798.472c-0.93-33.016-36.585-92.16-57.84-93.246l-477.215-0.124c-12.94 0.28-32.334 40.96-32.334 40.96z m-106.961 0s-19.27-40.65-32.21-41.054l-474.826 0.124C38.571-120.615 0.931-61.47 0-28.393v798.41h42.263v-765.3c186.958-30.503 355.452-57.996 524.599-85.458z"  horiz-adv-x="1241" />

    
    <glyph glyph-name="lishi" unicode="&#58880;" d="M467.7 313.1c4.1-2 9.7-3.5 13.9-2.9l206.4-2.6c18 0.1 32.5 14.6 32.5 32.6l0.3 19c-0.1 12.6-7.4 24-18.8 29.5-4.7 2.2-9.7 3.4-14.9 3.5l-154.2 2.6 1.1 153.7c-0.1 12.6-7.4 24.1-18.7 29.5-4.7 2.2-9.7 3.4-14.9 3.5l-19 0.3c-17.9-0.1-32.4-14.6-32.4-32.6l-1-206c0.6-11.9 8.4-24.6 19.7-30.1zM954.8 475C925.1 613.6 780.7 756.8 641 787.7c-30.4 6.8-61.5 10.3-92.8 10.3h-11.4C334.1 792.3 161.1 636.5 137 433.8l-1.1-4.6H84.4c-7.5 0.1-14.4-4.4-17.2-11.4a33.9 33.9 0 0 1 0-29.8l91.6-107.7c10.3-11.4 24.1-18.3 37.8-18.3 13.8 0 27.5 6.9 37.8 18.3l88.2 105.4 1.1 1.2 2.3 2.3 1.1 1.1c5.7 10.3 3.5 21.8 0 28.6-4.6 8-11.4 12.6-18.3 12.6h-56.1l1.1 6.9C279 578.1 394.7 678.9 536.7 683.5h16c160.4-2.3 293.2-135.1 295.5-295.5 1.1-80-29.8-157.2-85.9-214.2-57.3-57.3-132.9-89.4-214.2-89.4h-26.3c-16.3-0.3-29.4-13.5-29.7-29.8v-58.4c0-16 13.7-29.8 29.8-29.8h28.6c126 0 244 56.1 323 153.5 79.1 99.7 108.9 228 81.3 355.1z"  horiz-adv-x="1024" />

    
    <glyph glyph-name="music-prev" unicode="&#59373;" d="M99.89385482-96.86675910999998l52.11689719 0c24.51653215 0 44.38971732 19.87561245 44.38850369 44.3885037l0 358.84600889c5.0669037-4.21857659 10.66294992-8.25510876 16.81241127-12.06347851l610.27244563-378.07839764c69.17567525-42.85447585 125.77329303-11.33894163 125.77572029 70.03856592l0 794.59608653c0 81.37872121-55.93133511 111.83597037-124.29145126 67.68897897l-613.24219733-396.05467972c-5.57056-3.59598459-10.67387259-7.3764409-15.3269286-11.30496l0 377.16210727c0 24.51653215-19.86833067 44.38607645-44.38971733 44.38607646l-52.11689719-1e-8c-24.51653215 0-44.3885037-19.87075792-44.38971733-44.38607645l0-870.83629985c0-24.51653215 19.87561245-44.38607645 44.38971733-44.38607646z"  horiz-adv-x="1024" />

    
    <glyph glyph-name="light" unicode="&#58960;" d="M689.28 275.20000000000005c-33.728-27.584-58.112-47.488-58.112-76.928v-26.816H545.28V398.464l92.48 90.88a32.512 32.512 0 0 1-0.192 46.72 34.432 34.432 0 0 1-47.872-0.128L511.36 459.008 421.952 546.88a34.496 34.496 0 0 1-47.872 0.128 32.512 32.512 0 0 1-0.128-46.72L477.44 398.464v-227.008H391.552v26.816c0 31.36-26.88 53.312-60.8 81.152-57.024 46.72-135.04 110.592-135.04 237.248 0 172.8 141.568 313.28 315.648 313.28s315.712-140.544 315.712-313.28C827.072 387.84 744.192 320 689.28 275.20000000000005z m-108.032-238.08H441.472a50.112 50.112 0 0 0-49.92 50.112v18.176h239.744v-18.176c0-27.584-22.4-50.048-50.048-50.048zM511.36 896C299.968 896 128 725.8240000000001 128 516.672c0-157.44 99.712-239.104 159.232-287.872 13.632-11.136 32.064-26.24 36.672-33.344v-48.64a32.128 32.128 0 0 1-1.28-8.32c0-2.944 0.576-5.76 1.28-8.384v-39.68a29.568 29.568 0 0 1-0.128-3.2c0-64 52.8-116.16 117.76-116.16h139.712c64.96 0 117.76 52.16 117.76 116.16l-0.064 43.136a32 32 0 0 1 1.152 8.064 31.872 31.872 0 0 1-1.216 8.192v47.68c4.992 6.656 20.864 19.648 33.92 30.208 60.544 49.536 161.92 132.416 161.92 292.16C894.72 725.8240000000001 722.752 896 511.36 896z m105.152-957.952H406.208c-12.416 0-22.528-14.784-22.528-33.024 0-18.24 10.112-33.024 22.528-33.024h210.304c12.416 0 22.528 14.784 22.528 33.024 0 18.24-10.112 33.024-22.528 33.024z"  horiz-adv-x="1024" />

    
    <glyph glyph-name="category" unicode="&#58963;" d="M996.28827734-0.38397157999997944a65.56220068 65.56220068 0 0 0-65.61602841-65.61602842H111.14473643l114.70693799 530.14952109a65.45454521 65.45454521 0 0 0 65.50837383 65.56220157h754.18062187a65.56220068 65.56220068 0 0 0 65.45454521-65.6160293l-114.70693799-464.53349268zM242.21531094 578.96411455h737.4401912v64.59330147a65.66985615 65.66985615 0 0 1-65.61602841 65.61602929H520.88157881v59.21052627A65.66985615 65.66985615 0 0 1 455.31937813 834H127.61602842A65.66985615 65.66985615 0 0 1 62 768.38397158v-768.6602877l114.59928252 513.78588546a65.61602842 65.61602842 0 0 0 65.61602842 65.45454521z"  horiz-adv-x="1193" />

    
    <glyph glyph-name="archive" unicode="&#58887;" d="M746.057 175.95000000000005V279.97400000000005a26.006 26.006 0 0 1-70.013 0v-130.032a26.006 26.006 0 0 1 26.007-26.006h130.032a26.006 26.006 0 0 1 0 70.012H728.057z m156.038 227.503a310.672 310.672 0 0 1-182.044 58.566c-172.344 0-312.076-139.732-312.076-312.076 0-93.207 40.856-176.87 105.663-234.057H147.911a78.019 78.019 0 0 0-78.019 78.019v780.19a78.019 78.019 0 0 0 78.02 78.02h676.164a78.019 78.019 0 0 0 78.02-78.02v-370.642zM199.924 696.076a26.006 26.006 0 1 1 0-82.013H720.05a26.006 26.006 0 0 1 0 82.013H199.924z m0-182.044a26.006 26.006 0 0 1 0-82.013h260.063a26.006 26.006 0 0 1 0 82.013H199.924z m520.127-624.108c-143.633 0-260.064 116.43-260.064 260.063s116.43 260.064 260.064 260.064 260.063-116.43 260.063-260.064-116.43-260.063-260.063-260.063z"  horiz-adv-x="1024" />

    


  </font>
</defs>
</svg>
